<svg id="Layer_1" data-name="Layer 1" xmlns="http://www.w3.org/2000/svg" viewBox="0 0 350 423.86"><defs><style>.cls-1{fill:#009cf5;}</style></defs><title>Fully_Managed_Transparent</title><g id="Finished_Comps_Barrel_Dude_Tansparent_0_Layer0_0_FILL" data-name="Finished Comps Barrel Dude Tansparent 0 Layer0 0 FILL"><path class="cls-1" d="M1135,352.5a24.43,24.43,0,0,0-24.49-24.43h-301A24.26,24.26,0,0,0,785,352.5v375A23.66,23.66,0,0,0,788.32,740a25,25,0,0,0,3.79,4.81,23.75,23.75,0,0,0,17.38,7.15h301A24.51,24.51,0,0,0,1135,727.55v-375m-12,178.86v36.5q0,2.1-2.56,3.63-61.18,35.67-134.33-.26c-1.64-.85-2.46-2-2.46-3.37v-36.5c0-1.36,1-2,2.86-2q73.2,31,133.62,0c1.91,0,2.87.68,2.87,2m0,54v36.5q0,2.1-2.56,3.63-61.18,35.67-134.33-.26c-1.64-.85-2.46-2-2.46-3.37v-36.5c0-1.36,1-2,2.86-2q73.2,31,133.62,0c1.91,0,2.87.68,2.87,2m0,54v36.5q0,2.1-2.56,3.63-61.18,35.67-134.33-.26c-1.64-.85-2.46-2-2.46-3.37v-36.5c0-1.36,1-2,2.86-2q73.2,31,133.62,0c1.91,0,2.87.68,2.87,2M962.27,456v19.12a16.38,16.38,0,0,1-1.27,2.3q-3.27,5-7.82,5a8,8,0,0,1-4.2-1.17,69.38,69.38,0,0,1-14.21,31.23q-15.69,19.47-37.87,19.47t-37.83-19.47a69.22,69.22,0,0,1-14.31-31.64,8.1,8.1,0,0,1-4.81,1.58q-4.55,0-7.82-5a16.42,16.42,0,0,1-1.28-2.3V456a20.51,20.51,0,0,1,1.28-2.35,11.14,11.14,0,0,1,4.45-4.09v-.15a60.42,60.42,0,1,1,120.84,0V450a12.64,12.64,0,0,1,3.58,3.63,20.44,20.44,0,0,1,1.27,2.35m41.26,69.32q-20.61-7.51-20.6-18.15t20.6-18.2q20.7-7.46,49.89-7.46t49.84,7.46q20.7,7.51,20.7,18.2t-20.7,18.15q-20.61,7.51-49.84,7.51t-49.89-7.51m-59,13.95-26.89,37.17-12.47-11.66,33.33-36.34,6,10.83m-53.68,25.51-12.47,11.66L851.5,539.28l6-10.83,33.32,36.34m7.93,13.65,22.08,17.12,33.07-45.13q8.49-.82,10,7.46V675.36H785.56q-.1-19.32-.1-43.3,0-36.24,25.61-61.9a89.08,89.08,0,0,1,31.08-20.35l33.48,45.75,23.16-17.12m52.39-106.68V457.29l-3.52-.82q.55-8.89-1.08-12.72-11.51,2.6-23.21-3.22t-23.92,1q-12.21,6.84-24.28,2.91L850.43,440l-2.1,17.18h-5.67v13.8a33.8,33.8,0,0,0,9-.15A99.11,99.11,0,0,0,867,504.42q12.42,17.79,30,17.79t29.9-17.79A84.6,84.6,0,0,0,940.65,472Q945.3,469.36,951.18,471.76Z" transform="translate(-785 -328.07)"/></g></svg>