<svg id="Layer_1" data-name="Layer 1" xmlns="http://www.w3.org/2000/svg" viewBox="0 0 350 423.86"><defs><style>.cls-1{fill:#009cf5;}</style></defs><title>PPA_Transparent</title><g id="Finished_Comps_PPA_Tansparent_0_Layer0_0_FILL" data-name="Finished Comps PPA Tansparent 0 Layer0 0 FILL"><path class="cls-1" d="M1135,352.5a24.43,24.43,0,0,0-24.49-24.43h-301A24.26,24.26,0,0,0,785,352.5v375A23.66,23.66,0,0,0,788.32,740a25,25,0,0,0,3.79,4.81,23.75,23.75,0,0,0,17.38,7.15h301A24.51,24.51,0,0,0,1135,727.55v-375m-49.17,113.58q6.74,0,6.74,7V620.61q0,7-6.74,6.95H853.09q-6.75,0-6.75-6.95V473q0-7,6.75-7h73v51.79q0,13.29,10.48,13.59H1061.9q10.42-.3,10.43-13.59V466.08h13.5m-19,45.7q0,12.22-9.86,12.22H941.42q-9.81,0-9.82-12.22V413.89h135.26v97.89M830.55,510.4h11.14v82.2H830.55q-5.12,0-5.12-5.21V515.67q0-5.26,5.12-5.27m81.53,121.82v20.39q0,11.14-9.2,11.14H882.69q-9.21,0-9.21-11.14V632.22h38.6m118.08,20.39V632.22h38.59v20.39q0,11.14-9.2,11.14h-20.19q-9.19,0-9.2-11.14m-13.8-188.42a145.57,145.57,0,0,1-15.59-26.94,124.87,124.87,0,0,1-15.13,26.23,21.5,21.5,0,0,0-2.92,3.73l-.1.1h0a21.11,21.11,0,1,0,33.69-3.12m-13.45-9.81q.83,10,9.31,17.48a16.34,16.34,0,0,1,5.31,9.41q1.74,8.79-7.51,15v-1.38c-.62.48-1.26.94-1.94,1.38q-.11-6.23-1-8.28a78.91,78.91,0,0,0-5.77-8.84q-3.33,4.5-4.19,12.73c-.52-1.81-1-2.9-1.49-3.27-.2,1-.35,2.11-.46,3.27a15.27,15.27,0,0,0-.87-2.45c-1.22,1.7-1.55,3.93-1,6.69a11,11,0,0,1-2.2-1.74,11.46,11.46,0,0,0,.26,1.74q-3-1.74-5.47-6.54A12.59,12.59,0,0,1,984.36,479a47,47,0,0,1,4.19-9.41,17.58,17.58,0,0,0,.41,2.91,28.25,28.25,0,0,1,1.53-2.91q.4,5.37,2.3,7.36v-7.77a12.63,12.63,0,0,1,2.66-7.87l5.52-6.9c.07.71.15,1.41.26,2.09l1.68-2.09m-97.12,151a2.37,2.37,0,0,0-1.74-.72H873.18a2.53,2.53,0,0,0-1.79.72,2.58,2.58,0,0,0-.72,1.84,2.53,2.53,0,0,0,2.51,2.55h30.87a2.3,2.3,0,0,0,1.74-.76,2.37,2.37,0,0,0,.77-1.79,2.51,2.51,0,0,0-.77-1.84m0-8.44a2.34,2.34,0,0,0,.77-1.79,2.54,2.54,0,0,0-.77-1.84,2.4,2.4,0,0,0-1.74-.71H873.18a2.57,2.57,0,0,0-1.79.71,2.62,2.62,0,0,0-.72,1.84,2.4,2.4,0,0,0,.72,1.79,2.46,2.46,0,0,0,1.79.77h30.87a2.31,2.31,0,0,0,1.74-.77m-1.74-16.41H873.18a2.53,2.53,0,0,0-1.79.72,2.6,2.6,0,0,0-.72,1.84,2.42,2.42,0,0,0,.72,1.79,2.46,2.46,0,0,0,1.79.77h30.87a2.31,2.31,0,0,0,1.74-.77,2.35,2.35,0,0,0,.77-1.79,2.52,2.52,0,0,0-.77-1.84,2.37,2.37,0,0,0-1.74-.72m-32.66-7.71a2.45,2.45,0,0,0,1.79.76h30.87a2.3,2.3,0,0,0,1.74-.76,2.37,2.37,0,0,0,.77-1.79,2.51,2.51,0,0,0-.77-1.84,2.37,2.37,0,0,0-1.74-.72H873.18a2.53,2.53,0,0,0-1.79.72,2.58,2.58,0,0,0-.72,1.84,2.44,2.44,0,0,0,.72,1.79m1.79-59.56a2.53,2.53,0,0,0-1.79.72,2.58,2.58,0,0,0-.72,1.84,2.42,2.42,0,0,0,.72,1.79,2.46,2.46,0,0,0,1.79.77h30.87a2.31,2.31,0,0,0,1.74-.77,2.35,2.35,0,0,0,.77-1.79,2.51,2.51,0,0,0-.77-1.84,2.37,2.37,0,0,0-1.74-.72H873.18M905.79,502a2.37,2.37,0,0,0-1.74-.72H873.18a2.53,2.53,0,0,0-1.79.72,2.58,2.58,0,0,0-.72,1.84,2.53,2.53,0,0,0,2.51,2.55h30.87a2.3,2.3,0,0,0,1.74-.76,2.37,2.37,0,0,0,.77-1.79,2.51,2.51,0,0,0-.77-1.84m0-8.33a2.37,2.37,0,0,0,.77-1.79,2.51,2.51,0,0,0-.77-1.84,2.37,2.37,0,0,0-1.74-.72H873.18a2.53,2.53,0,0,0-1.79.72,2.58,2.58,0,0,0-.72,1.84,2.53,2.53,0,0,0,2.51,2.55h30.87A2.3,2.3,0,0,0,905.79,493.64Z" transform="translate(-785 -328.07)"/></g></svg>