<svg id="Layer_1" data-name="Layer 1" xmlns="http://www.w3.org/2000/svg" viewBox="0 0 350 423.86"><defs><style>.cls-1{fill:#009cf5;}</style></defs><title>Colo_Transparent</title><g id="Finished_Comps_Computer_Transparent_0_Layer0_0_FILL" data-name="Finished Comps Computer Transparent 0 Layer0 0 FILL"><path class="cls-1" d="M1091.86,631.24a15.88,15.88,0,1,0-11.2-4.65,15.32,15.32,0,0,0,11.2,4.65M812.25,615.4a15.71,15.71,0,1,0,4.6-11.25,15.33,15.33,0,0,0-4.6,11.25M1135,352.5a24.43,24.43,0,0,0-24.49-24.43h-301A24.26,24.26,0,0,0,785,352.5v69.42h73.81a1.45,1.45,0,0,1,1.64,1.63V446.3h-66.1a6.61,6.61,0,0,0-4.49,1.59,4.78,4.78,0,0,0-1.9,3.78v1a4.7,4.7,0,0,0,1.9,3.78,6.61,6.61,0,0,0,4.49,1.59h66.1v20.09h-66.1a6.65,6.65,0,0,0-4.49,1.58,4.81,4.81,0,0,0-1.9,3.79v1a4.7,4.7,0,0,0,1.9,3.78,6.61,6.61,0,0,0,4.49,1.59h66.1V510h-66.1a6.61,6.61,0,0,0-4.49,1.59,4.81,4.81,0,0,0-1.9,3.78v1a4.73,4.73,0,0,0,1.9,3.79,6.65,6.65,0,0,0,4.49,1.58h66.1V666.16a1.45,1.45,0,0,1-1.64,1.63H785v59.76A23.66,23.66,0,0,0,788.32,740a25,25,0,0,0,3.79,4.81,23.75,23.75,0,0,0,17.38,7.15h301A24.51,24.51,0,0,0,1135,727.55V667.79h-73.86a1.45,1.45,0,0,1-1.64-1.63V521.75h66.09a6.66,6.66,0,0,0,4.5-1.58,4.72,4.72,0,0,0,1.89-3.79v-1a4.8,4.8,0,0,0-1.89-3.78,6.62,6.62,0,0,0-4.5-1.59H1059.5V489.91h66.09a6.62,6.62,0,0,0,4.5-1.59,4.69,4.69,0,0,0,1.89-3.78v-1a4.8,4.8,0,0,0-1.89-3.79,6.66,6.66,0,0,0-4.5-1.58H1059.5V458.06h66.09a6.62,6.62,0,0,0,4.5-1.59,4.69,4.69,0,0,0,1.89-3.78v-1a4.77,4.77,0,0,0-1.89-3.78,6.62,6.62,0,0,0-4.5-1.59H1059.5V423.55a1.45,1.45,0,0,1,1.64-1.63H1135V352.5m-108.52,33.64q15.13,0,15.13,14.77V690.54q0,14.82-15.13,14.82h-133q-15.13,0-15.13-14.82V400.91q0-14.78,15.13-14.77h133M937,637.58a23,23,0,1,0,45.91,0,23,23,0,0,0-45.91,0m75.61-137.25a9.43,9.43,0,0,0-6.75-2.71H914a9.43,9.43,0,0,0-6.75,2.71,9.14,9.14,0,0,0,0,13.09,9.39,9.39,0,0,0,6.75,2.71h91.86a9.39,9.39,0,0,0,6.75-2.71,9,9,0,0,0,0-13.09m0-40.89a9.39,9.39,0,0,0-6.75-2.71H914a9.39,9.39,0,0,0-6.75,2.71,9.14,9.14,0,0,0,0,13.09,9.42,9.42,0,0,0,6.75,2.7h91.86a9.42,9.42,0,0,0,6.75-2.7,9,9,0,0,0,0-13.09m0-40.89a9.39,9.39,0,0,0-6.75-2.71H914a9.39,9.39,0,0,0-6.75,2.71,9.13,9.13,0,0,0,0,13.08,9.39,9.39,0,0,0,6.75,2.71h91.86a9.39,9.39,0,0,0,6.75-2.71,9,9,0,0,0,0-13.08Z" transform="translate(-785 -328.07)"/></g></svg>