<svg id="_002-twitter" data-name="002-twitter" xmlns="http://www.w3.org/2000/svg" width="23.629" height="23.629" viewBox="0 0 23.629 23.629">
  <circle id="Ellipse_68" data-name="Ellipse 68" cx="11.814" cy="11.814" r="11.814" transform="translate(0 0)" fill="#55acee"/>
  <g id="Group_259" data-name="Group 259" transform="translate(5.287 7.166)">
    <path id="Path_929" data-name="Path 929" d="M38.868,35.352a5.634,5.634,0,0,1-1.622.444,2.832,2.832,0,0,0,1.242-1.562,5.653,5.653,0,0,1-1.793.685A2.826,2.826,0,0,0,31.882,37.5a8.016,8.016,0,0,1-5.821-2.951,2.827,2.827,0,0,0,.874,3.77,2.8,2.8,0,0,1-1.279-.354c0,.012,0,.024,0,.036a2.826,2.826,0,0,0,2.265,2.769,2.835,2.835,0,0,1-1.275.049,2.827,2.827,0,0,0,2.638,1.961A5.7,5.7,0,0,1,25.1,43.945a8.031,8.031,0,0,0,12.363-6.766c0-.122,0-.244-.008-.365a5.727,5.727,0,0,0,1.409-1.462Z" transform="translate(-25.103 -34.028)" fill="#f1f2f2"/>
  </g>
</svg>
